<svg width="20" height="20" viewBox="0 0 20 20" fill="none" xmlns="http://www.w3.org/2000/svg">
<path d="M10.0007 9.99984C12.3018 9.99984 14.1673 8.13436 14.1673 5.83317C14.1673 3.53198 12.3018 1.6665 10.0007 1.6665C7.69946 1.6665 5.83398 3.53198 5.83398 5.83317C5.83398 8.13436 7.69946 9.99984 10.0007 9.99984Z" stroke="#E3E3E3" stroke-width="1.25" stroke-linecap="round" stroke-linejoin="round"/>
<path d="M2.8418 18.3333C2.8418 15.1083 6.05013 12.5 10.0001 12.5C10.8001 12.5 11.5751 12.6083 12.3001 12.8083" stroke="#E3E3E3" stroke-width="1.25" stroke-linecap="round" stroke-linejoin="round"/>
<path d="M18.3337 14.9998C18.3337 15.6248 18.1587 16.2165 17.8503 16.7165C17.6753 17.0165 17.4503 17.2832 17.192 17.4998C16.6087 18.0248 15.842 18.3332 15.0003 18.3332C13.7837 18.3332 12.7253 17.6832 12.1503 16.7165C11.842 16.2165 11.667 15.6248 11.667 14.9998C11.667 13.9498 12.1503 13.0082 12.917 12.3998C13.492 11.9415 14.217 11.6665 15.0003 11.6665C16.842 11.6665 18.3337 13.1582 18.3337 14.9998Z" stroke="#E3E3E3" stroke-width="1.25" stroke-miterlimit="10" stroke-linecap="round" stroke-linejoin="round"/>
<path d="M13.7002 14.9998L14.5252 15.8247L16.3002 14.1831" stroke="#E3E3E3" stroke-width="1.25" stroke-linecap="round" stroke-linejoin="round"/>
</svg>
