<svg width="39" height="38" viewBox="0 0 39 38" fill="none" xmlns="http://www.w3.org/2000/svg">
<rect x="0.5" width="38" height="38" rx="19" fill="#F5F6F7"/>
<g clip-path="url(#clip0_1715_34127)">
<path d="M8.05754 31C7.92278 31 7.79168 30.9467 7.69445 30.8484C7.56627 30.7188 7.51683 30.5305 7.56499 30.3546L9.12523 24.657C8.15386 22.9005 7.64171 20.9135 7.64244 18.8964C7.64519 12.3366 12.9834 7 19.5427 7C22.7241 7.00128 25.7135 8.24054 27.9604 10.4891C30.2069 12.7378 31.4436 15.727 31.4427 18.9059C31.4397 25.4658 26.1015 30.8028 19.5427 30.8028C19.5427 30.8028 19.5377 30.8028 19.5375 30.8028C17.6217 30.8021 15.7223 30.3351 14.0312 29.4507L8.187 30.9833C8.14415 30.9945 8.10057 31 8.05754 31Z" fill="#E5E5E5"/>
<path d="M8.05737 30.4894L9.6731 24.5892C8.67645 22.8623 8.15222 20.9034 8.15295 18.8966C8.15552 12.6185 13.2645 7.51074 19.5425 7.51074C22.589 7.51202 25.4485 8.69782 27.5989 10.85C29.7491 13.0023 30.9329 15.8631 30.9318 18.9058C30.9291 25.1837 25.8193 30.2922 19.5425 30.2922C19.5421 30.2922 19.5427 30.2922 19.5425 30.2922H19.5375C17.6314 30.2914 15.7586 29.8134 14.0951 28.9061L8.05737 30.4894ZM14.3747 26.8449L14.7206 27.0497C16.1737 27.9122 17.8398 28.3683 19.5388 28.3692H19.5425C24.7599 28.3692 29.0065 24.1234 29.0087 18.905C29.0096 16.3762 28.0259 13.9982 26.2386 12.2094C24.4512 10.4207 22.0746 9.435 19.546 9.4339C14.3243 9.4339 10.0779 13.6792 10.0759 18.8973C10.0752 20.6855 10.5754 22.4269 11.5232 23.9338L11.7484 24.292L10.7919 27.7842L14.3747 26.8449Z" fill="white"/>
<path d="M8.45361 30.0914L10.0135 24.3952C9.05109 22.7282 8.54517 20.8369 8.54572 18.8998C8.5481 12.8391 13.4804 7.9082 19.5406 7.9082C22.4821 7.90948 25.2427 9.05426 27.3182 11.132C29.3943 13.2097 30.5369 15.9714 30.5358 18.9084C30.5332 24.9694 25.6007 29.9008 19.5412 29.9008C19.5406 29.9008 19.5414 29.9008 19.5412 29.9008H19.5363C17.6962 29.9001 15.8881 29.4383 14.2822 28.5631L8.45361 30.0914Z" fill="#64B161"/>
<path d="M8.05737 30.4894L9.6731 24.5892C8.67645 22.8623 8.15222 20.9034 8.15295 18.8966C8.15552 12.6185 13.2645 7.51074 19.5425 7.51074C22.589 7.51202 25.4485 8.69782 27.5989 10.85C29.7491 13.0023 30.9329 15.8631 30.9318 18.9058C30.9291 25.1837 25.8193 30.2922 19.5425 30.2922C19.5421 30.2922 19.5427 30.2922 19.5425 30.2922H19.5375C17.6314 30.2914 15.7586 29.8134 14.0951 28.9061L8.05737 30.4894ZM14.3747 26.8449L14.7206 27.0497C16.1737 27.9122 17.8398 28.3683 19.5388 28.3692H19.5425C24.7599 28.3692 29.0065 24.1234 29.0087 18.905C29.0096 16.3762 28.0259 13.9982 26.2386 12.2094C24.4512 10.4207 22.0746 9.435 19.546 9.4339C14.3243 9.4339 10.0779 13.6792 10.0759 18.8973C10.0752 20.6855 10.5754 22.4269 11.5232 23.9338L11.7484 24.292L10.7919 27.7842L14.3747 26.8449Z" fill="white"/>
<path fill-rule="evenodd" clip-rule="evenodd" d="M16.696 14.1361C16.4828 13.6622 16.2584 13.6527 16.0555 13.6445C15.8896 13.6373 15.6997 13.6377 15.5102 13.6377C15.3205 13.6377 15.0121 13.7091 14.7514 13.9938C14.4905 14.2786 13.7551 14.967 13.7551 16.3673C13.7551 17.7676 14.775 19.1206 14.9173 19.3107C15.0596 19.5006 16.886 22.4658 19.7786 23.6065C22.1826 24.5546 22.6716 24.366 23.1935 24.3186C23.7153 24.2712 24.8771 23.6301 25.1143 22.9656C25.3516 22.3012 25.3516 21.7317 25.2803 21.6125C25.2091 21.494 25.0194 21.4228 24.7349 21.2805C24.4503 21.1382 23.0512 20.4496 22.7903 20.3547C22.5294 20.2597 22.3397 20.2125 22.15 20.4974C21.9601 20.7819 21.4152 21.4228 21.2491 21.6125C21.083 21.8027 20.9169 21.8265 20.6324 21.6841C20.3478 21.5414 19.4312 21.2412 18.3439 20.2716C17.498 19.5174 16.9267 18.5858 16.7606 18.3008C16.5947 18.0163 16.7579 17.8757 16.8857 17.7202C17.1158 17.4403 17.502 16.9369 17.5969 16.7472C17.6917 16.5571 17.6443 16.3911 17.5732 16.2486C17.502 16.1063 16.9489 14.699 16.696 14.1361Z" fill="white"/>
</g>
<defs>
<clipPath id="clip0_1715_34127">
<rect width="24" height="24" fill="white" transform="translate(7.5 7)"/>
</clipPath>
</defs>
</svg>
